<svg width="36" height="36" viewBox="0 0 36 36" fill="none" xmlns="http://www.w3.org/2000/svg">
<g clip-path="url(#clip0_3_57)">
<path d="M23.5249 0H12.474C2.38953 0 -0.00109863 2.39062 -0.00109863 12.4751V23.526C-0.00109863 33.6105 2.38953 36.0011 12.474 36.0011H23.5249C33.6094 36.0011 36 33.6105 36 23.526V12.4751C36 2.39062 33.5858 0 23.5249 0ZM29.0622 25.6815H26.4488C25.4588 25.6815 25.1539 24.8962 23.373 23.0917C21.8261 21.5921 21.141 21.393 20.7596 21.393C20.2208 21.393 20.0678 21.5449 20.0678 22.284V24.6454C20.0678 25.2787 19.8687 25.659 18.1924 25.659C15.4204 25.659 12.3447 23.9827 10.188 20.8597C6.93565 16.2833 6.04578 12.8554 6.04578 12.1466C6.04578 11.7653 6.19765 11.4086 6.93003 11.4086H9.54903C10.2117 11.4086 10.4637 11.7135 10.7213 12.4222C12.0162 16.1606 14.1728 19.4355 15.0627 19.4355C15.3912 19.4355 15.543 19.2836 15.543 18.4455V14.5845C15.4429 12.8036 14.5058 12.6506 14.5058 12.0184C14.5058 11.7135 14.7578 11.4086 15.1617 11.4086H19.2803C19.8372 11.4086 20.0419 11.7135 20.0419 12.3694V17.5781C20.0419 18.1406 20.2939 18.3398 20.4458 18.3398C20.7743 18.3398 21.0555 18.1406 21.6642 17.5309C23.5452 15.4215 24.8929 12.1691 24.8929 12.1691C25.0684 11.7878 25.3733 11.4311 26.0359 11.4311H28.6549C29.4402 11.4311 29.6157 11.835 29.4402 12.3975C29.1117 13.9208 25.9065 18.4444 25.9065 18.4444C25.6309 18.9011 25.5252 19.1003 25.9065 19.6099C26.1878 19.9912 27.1024 20.7821 27.711 21.4909C28.8304 22.7621 29.691 23.8286 29.9205 24.5666C30.1782 25.299 29.7979 25.6804 29.0588 25.6804L29.0622 25.6815Z" fill="#2F4E8E"/>
</g>
<defs>
<clipPath id="clip0_3_57">
<rect width="36" height="36" rx="10" fill="white"/>
</clipPath>
</defs>
</svg>
